{
  "accessors": [
    {
      "bufferView": 2,
      "componentType": 5126,
      "count": 257,
      "max": [
        692.0418701171875,
        31.434375762939453,
        12.932757377624512
      ],
      "min": [
        594.1038818359375,
        -31.41998291015625,
        -46.74644088745117
      ],
      "type": "VEC3"
    },
    {
      "bufferView": 2,
      "byteOffset": 3084,
      "componentType": 5126,
      "count": 257,
      "max": [
        0.9919169545173645,
        0.998679518699646,
        0.259091854095459
      ],
      "min": [
        -0.8526614308357239,
        -0.9988095164299011,
        -0.9996050000190735
      ],
      "type": "VEC3"
    },
    {
      "bufferView": 1,
      "componentType": 5126,
      "count": 257,
      "max": [
        0.9881012439727783,
        0.8878361582756042
      ],
      "min": [
        0.013243886642158031,
        0.1364082247018814
      ],
      "type": "VEC2"
    },
    {
      "bufferView": 1,
      "byteOffset": 2056,
      "componentType": 5126,
      "count": 257,
      "max": [
        0.9881012439727783,
        0.8878361582756042
      ],
      "min": [
        0.013243886642158031,
        0.1364082247018814
      ],
      "type": "VEC2"
    },
    {
      "bufferView": 1,
      "byteOffset": 4112,
      "componentType": 5126,
      "count": 257,
      "max": [
        0.9881012439727783,
        0.8878361582756042
      ],
      "min": [
        0.013243886642158031,
        0.1364082247018814
      ],
      "type": "VEC2"
    },
    {
      "bufferView": 0,
      "componentType": 5125,
      "count": 1440,
      "type": "SCALAR"
    },
    {
      "bufferView": 2,
      "byteOffset": 6168,
      "componentType": 5126,
      "count": 6767,
      "max": [
        381.32470703125,
        40.67634201049805,
        787.7024536132813
      ],
      "min": [
        -381.32470703125,
        -40.67634201049805,
        0.0
      ],
      "type": "VEC3"
    },
    {
      "bufferView": 2,
      "byteOffset": 87372,
      "componentType": 5126,
      "count": 6767,
      "max": [
        1.0,
        1.0,
        1.0
      ],
      "min": [
        -1.0,
        -1.0,
        -1.0
      ],
      "type": "VEC3"
    },
    {
      "bufferView": 1,
      "byteOffset": 6168,
      "componentType": 5126,
      "count": 6767,
      "max": [
        0.933319628238678,
        0.989841639995575
      ],
      "min": [
        0.060868795961141586,
        0.009234265424311161
      ],
      "type": "VEC2"
    },
    {
      "bufferView": 1,
      "byteOffset": 60304,
      "componentType": 5126,
      "count": 6767,
      "max": [
        0.933319628238678,
        0.989841639995575
      ],
      "min": [
        0.060868795961141586,
        0.009234265424311161
      ],
      "type": "VEC2"
    },
    {
      "bufferView": 0,
      "byteOffset": 5760,
      "componentType": 5125,
      "count": 33384,
      "type": "SCALAR"
    },
    {
      "bufferView": 2,
      "byteOffset": 168576,
      "componentType": 5126,
      "count": 257,
      "max": [
        39.971290588378906,
        31.434362411499023,
        12.932819366455078
      ],
      "min": [
        -57.966705322265625,
        -31.420000076293945,
        -46.74638366699219
      ],
      "type": "VEC3"
    },
    {
      "bufferView": 2,
      "byteOffset": 171660,
      "componentType": 5126,
      "count": 257,
      "max": [
        0.8526623249053955,
        0.9986793994903564,
        0.2590964734554291
      ],
      "min": [
        -0.9919165968894958,
        -0.9988095164299011,
        -0.9996050000190735
      ],
      "type": "VEC3"
    },
    {
      "bufferView": 1,
      "byteOffset": 114440,
      "componentType": 5126,
      "count": 257,
      "max": [
        0.9881591796875,
        0.8879417777061462
      ],
      "min": [
        0.01330190896987915,
        0.1365140974521637
      ],
      "type": "VEC2"
    },
    {
      "bufferView": 1,
      "byteOffset": 116496,
      "componentType": 5126,
      "count": 257,
      "max": [
        0.9881591796875,
        0.8879417777061462
      ],
      "min": [
        0.01330190896987915,
        0.1365140974521637
      ],
      "type": "VEC2"
    },
    {
      "bufferView": 1,
      "byteOffset": 118552,
      "componentType": 5126,
      "count": 257,
      "max": [
        0.9881591796875,
        0.8879417777061462
      ],
      "min": [
        0.01330190896987915,
        0.1365140974521637
      ],
      "type": "VEC2"
    },
    {
      "bufferView": 0,
      "byteOffset": 139296,
      "componentType": 5125,
      "count": 1440,
      "type": "SCALAR"
    }
  ],
  "asset": {
    "extras": {
      "author": "Misam Ali Rizvi (https://sketchfab.com/MisamAliRizvi)",
      "license": "SKETCHFAB Standard (https://sketchfab.com/licenses)",
      "source": "https://sketchfab.com/3d-models/street-lamp-04-a-a54cd9f3362b4b9689e10f5fab8ff65a",
      "title": "Street Lamp 04 A"
    },
    "generator": "Sketchfab-16.12.0",
    "version": "2.0"
  },
  "bufferViews": [
    {
      "buffer": 0,
      "byteLength": 145056,
      "name": "floatBufferViews",
      "target": 34963
    },
    {
      "buffer": 0,
      "byteLength": 120608,
      "byteOffset": 145056,
      "byteStride": 8,
      "name": "floatBufferViews",
      "target": 34962
    },
    {
      "buffer": 0,
      "byteLength": 174744,
      "byteOffset": 265664,
      "byteStride": 12,
      "name": "floatBufferViews",
      "target": 34962
    }
  ],
  "buffers": [
    {
      "byteLength": 440408,
      "uri": "scene.bin"
    }
  ],
  "extensionsRequired": [
    "KHR_materials_pbrSpecularGlossiness"
  ],
  "extensionsUsed": [
    "KHR_materials_pbrSpecularGlossiness"
  ],
  "images": [
    {
      "uri": "textures/Light_Right_04_A_diffuse.jpeg"
    },
    {
      "uri": "textures/Light_Right_04_A_specularGlossiness.png"
    },
    {
      "uri": "textures/Light_Right_04_A_emissive.jpeg"
    },
    {
      "uri": "textures/Body_04_A_diffuse.jpeg"
    },
    {
      "uri": "textures/Body_04_A_specularGlossiness.png"
    },
    {
      "uri": "textures/Light_Left_04_A_diffuse.jpeg"
    },
    {
      "uri": "textures/Light_Left_04_A_specularGlossiness.png"
    },
    {
      "uri": "textures/Light_Left_04_A_emissive.jpeg"
    }
  ],
  "materials": [
    {
      "doubleSided": true,
      "emissiveFactor": [
        1.0,
        1.0,
        1.0
      ],
      "emissiveTexture": {
        "index": 2
      },
      "extensions": {
        "KHR_materials_pbrSpecularGlossiness": {
          "diffuseFactor": [
            1.0,
            1.0,
            1.0,
            1.0
          ],
          "diffuseTexture": {
            "index": 0
          },
          "glossinessFactor": 1.0,
          "specularFactor": [
            1.0,
            1.0,
            1.0
          ],
          "specularGlossinessTexture": {
            "index": 1
          }
        }
      },
      "name": "Light_Right_04_A"
    },
    {
      "doubleSided": true,
      "extensions": {
        "KHR_materials_pbrSpecularGlossiness": {
          "diffuseFactor": [
            1.0,
            1.0,
            1.0,
            1.0
          ],
          "diffuseTexture": {
            "index": 3
          },
          "glossinessFactor": 1.0,
          "specularFactor": [
            1.0,
            1.0,
            1.0
          ],
          "specularGlossinessTexture": {
            "index": 4
          }
        }
      },
      "name": "Body_04_A"
    },
    {
      "doubleSided": true,
      "emissiveFactor": [
        1.0,
        1.0,
        1.0
      ],
      "emissiveTexture": {
        "index": 7
      },
      "extensions": {
        "KHR_materials_pbrSpecularGlossiness": {
          "diffuseFactor": [
            1.0,
            1.0,
            1.0,
            1.0
          ],
          "diffuseTexture": {
            "index": 5
          },
          "glossinessFactor": 1.0,
          "specularFactor": [
            1.0,
            1.0,
            1.0
          ],
          "specularGlossinessTexture": {
            "index": 6
          }
        }
      },
      "name": "Light_Left_04_A"
    }
  ],
  "meshes": [
    {
      "name": "Light_Right_04_A_Light_Right_04_A_0",
      "primitives": [
        {
          "attributes": {
            "NORMAL": 1,
            "POSITION": 0,
            "TEXCOORD_0": 2,
            "TEXCOORD_1": 3,
            "TEXCOORD_2": 4
          },
          "indices": 5,
          "material": 0,
          "mode": 4
        }
      ]
    },
    {
      "name": "Body_04_A_Body_04_A_0",
      "primitives": [
        {
          "attributes": {
            "NORMAL": 7,
            "POSITION": 6,
            "TEXCOORD_0": 8,
            "TEXCOORD_1": 9
          },
          "indices": 10,
          "material": 1,
          "mode": 4
        }
      ]
    },
    {
      "name": "Light_Left_04_A_Light_Left_04_A_0",
      "primitives": [
        {
          "attributes": {
            "NORMAL": 12,
            "POSITION": 11,
            "TEXCOORD_0": 13,
            "TEXCOORD_1": 14,
            "TEXCOORD_2": 15
          },
          "indices": 16,
          "material": 2,
          "mode": 4
        }
      ]
    }
  ],
  "nodes": [
    {
      "children": [
        1
      ],
      "matrix": [
        1.0,
        2.8327693431939995e-16,
        -2.8327693431939985e-16,
        0.0,
        2.832769343193999e-16,
        -2.2204460492503128e-16,
        1.0,
        0.0,
        2.832769343193999e-16,
        -1.0,
        -2.2204460492503136e-16,
        0.0,
        0.0,
        0.0,
        0.0,
        1.0
      ],
      "name": "Sketchfab_model"
    },
    {
      "children": [
        2
      ],
      "matrix": [
        1.0,
        0.0,
        0.0,
        0.0,
        0.0,
        -1.0,
        0.0,
        0.0,
        0.0,
        0.0,
        -1.0,
        0.0,
        0.0,
        0.0,
        0.0,
        1.0
      ],
      "name": "02450ac1de48451e8ff876caedcdda2b.fbx"
    },
    {
      "children": [
        3
      ],
      "name": "RootNode"
    },
    {
      "children": [
        4,
        7,
        10
      ],
      "matrix": [
        0.5685100555419922,
        0.0,
        0.0,
        0.0,
        0.0,
        0.5685100555419922,
        0.0,
        0.0,
        0.0,
        0.0,
        0.5685100555419922,
        0.0,
        0.0,
        0.0,
        0.0,
        1.0
      ],
      "name": "StreetLamp_04_A"
    },
    {
      "children": [
        5
      ],
      "matrix": [
        1.0,
        0.0,
        0.0,
        0.0,
        0.0,
        1.0,
        0.0,
        0.0,
        0.0,
        0.0,
        1.0,
        0.0,
        326.0351867675781,
        -3.665501832962036,
        739.7550048828125,
        1.0
      ],
      "name": "Light_Right_04_A"
    },
    {
      "children": [
        6
      ],
      "matrix": [
        1.0,
        0.0,
        -0.0,
        0.0,
        0.0,
        1.0,
        0.0,
        0.0,
        0.0,
        0.0,
        1.0,
        0.0,
        -643.0728759765625,
        -0.0071965595707297325,
        16.90679931640625,
        1.0
      ],
      "name": "Object_5"
    },
    {
      "mesh": 0,
      "name": "Light_Right_04_A_Light_Right_04_A_0"
    },
    {
      "children": [
        8
      ],
      "matrix": [
        1.0,
        0.0,
        0.0,
        0.0,
        0.0,
        1.0,
        0.0,
        0.0,
        0.0,
        0.0,
        1.0,
        0.0,
        1.52587890625e-05,
        -9.5367431640625e-07,
        393.85125732421875,
        1.0
      ],
      "name": "Body_04_A"
    },
    {
      "children": [
        9
      ],
      "matrix": [
        1.0,
        0.0,
        -0.0,
        0.0,
        0.0,
        1.0,
        0.0,
        0.0,
        0.0,
        0.0,
        1.0,
        0.0,
        0.0,
        0.0,
        -393.8512268066406,
        1.0
      ],
      "name": "Object_8"
    },
    {
      "mesh": 1,
      "name": "Body_04_A_Body_04_A_0"
    },
    {
      "children": [
        11
      ],
      "matrix": [
        1.0,
        0.0,
        0.0,
        0.0,
        0.0,
        1.0,
        0.0,
        0.0,
        0.0,
        0.0,
        1.0,
        0.0,
        -326.0354309082031,
        -3.6655192375183105,
        739.7550048828125,
        1.0
      ],
      "name": "Light_Left_04_A"
    },
    {
      "children": [
        12
      ],
      "matrix": [
        1.0,
        0.0,
        -0.0,
        0.0,
        0.0,
        1.0,
        0.0,
        0.0,
        0.0,
        0.0,
        1.0,
        0.0,
        8.99770736694336,
        -0.007181367836892605,
        16.90679931640625,
        1.0
      ],
      "name": "Object_11"
    },
    {
      "mesh": 2,
      "name": "Light_Left_04_A_Light_Left_04_A_0"
    }
  ],
  "samplers": [
    {
      "magFilter": 9729,
      "minFilter": 9987,
      "wrapS": 10497,
      "wrapT": 10497
    }
  ],
  "scene": 0,
  "scenes": [
    {
      "name": "Sketchfab_Scene",
      "nodes": [
        0
      ]
    }
  ],
  "textures": [
    {
      "sampler": 0,
      "source": 0
    },
    {
      "sampler": 0,
      "source": 1
    },
    {
      "sampler": 0,
      "source": 2
    },
    {
      "sampler": 0,
      "source": 3
    },
    {
      "sampler": 0,
      "source": 4
    },
    {
      "sampler": 0,
      "source": 5
    },
    {
      "sampler": 0,
      "source": 6
    },
    {
      "sampler": 0,
      "source": 7
    }
  ]
}
